#!OML:ASF E:\Steps\Project 1\Capture day 1\Session 2\Subject.ASF
:FULLY-SPECIFIED
:DEGREES
398
root 13.8132 21.3903 8.00577 -140.668 -52.086 187.297
lowerback -17.024 -3.7019 -11.985
upperback -0.767785 -2.72142 -0.568606
thorax 9.283 -1.88695 5.46788
lowerneck -0.592136 -9.38834 -4.64944
upperneck -6.0961 -12.9986 25.4972
head 0.456509 -7.32173 8.29442
rclavicle -1.90833e-014 1.38354e-013
rhumerus -37.3923 23.3624 -70.1659
rradius 38.3184
rwrist 7.82444
rhand 14.5802 -52.1522
rfingers 7.12502
rthumb 39.4563 -77.5399
lclavicle -1.90833e-014 1.38354e-013
lhumerus -3.67486 -35.8649 29.7125
lradius 84.9983
lwrist 8.1759
lhand -26.4882 -35.0223
lfingers 7.12502
lthumb 0.0742027 -5.04262
rfemur -51.0769 -5.97544 31.1153
rtibia 17.2989
rfoot 13.8874 -21.2945
rtoes -28.3254
lfemur -60.8 -1.52969 -4.31404
ltibia 25.5251
lfoot 28.0591 9.49269
ltoes -49.1425
399
root 13.8791 21.1335 8.04941 -141.356 -49.8551 188.397
lowerback -16.4223 -3.59259 -12.1729
upperback -0.507877 -2.59028 -0.676396
thorax 9.21685 -1.8336 5.5023
lowerneck -0.831409 -8.86248 -5.00187
upperneck -6.41342 -12.281 25.9453
head 0.357331 -7.01124 8.54279
rclavicle 7.95139e-015 3.02153e-014
rhumerus -38.4326 23.1684 -69.7733
rradius 37.9084
rwrist 7.91296
rhand 17.7261 -52.6227
rfingers 7.12502
rthumb 42.4112 -77.0734
lclavicle 7.95139e-015 3.02153e-014
lhumerus -2.91254 -35.5487 31.4942
lradius 81.6605
lwrist 7.11837
lhand -26.5994 -34.7815
lfingers 7.12502
lthumb -0.0331773 -4.80177
rfemur -51.2087 -5.53969 31.8945
rtibia 16.6084
rfoot 14.7368 -20.1632
rtoes -30.1465
lfemur -60.0711 -2.99295 -0.38
ltibia 22.303
lfoot 26.0968 13.2849
ltoes -44.5215
400
root 13.942 20.8607 8.09209 -141.954 -47.646 189.528
lowerback -16.0179 -3.45232 -12.2766
upperback -0.251492 -2.40603 -0.83587
thorax 9.23937 -1.7557 5.43794
lowerneck -0.921537 -8.28721 -5.14065
upperneck -6.97771 -11.4497 26.3474
head 0.119833 -6.68373 8.7688
rclavicle -6.20208e-014 2.70347e-014
rhumerus -39.5147 22.5673 -69.3621
rradius 37.4458
rwrist 8.02321
rhand 19.2481 -52.7401
rfingers 7.12502
rthumb 43.834 -76.6846
lclavicle -6.20208e-014 2.70347e-014
lhumerus -2.12357 -35.2806 33.0921
lradius 78.4832
lwrist 6.54507
lhand -26.7408 -34.5617
lfingers 7.12502
lthumb -0.169723 -4.58201
rfemur -52.0248 -6.40524 34.053
rtibia 16.8291
rfoot 15.831 -17.2772
rtoes -32.069
lfemur -59.5215 -4.42732 3.7627
ltibia 19.5213
lfoot 23.973 16.8249
ltoes -40.0808
401
root 14.0016 20.5751 8.13331 -142.578 -45.43 190.665
lowerback -15.5183 -3.40528 -12.4493
upperback -0.0704739 -2.36501 -0.874464
thorax 9.15889 -1.74459 5.51349
lowerneck -1.05729 -7.72883 -5.51258
upperneck -7.34118 -10.6695 26.6959
head -0.0378484 -6.35152 9.00428
rclavicle 8.11041e-014 5.56597e-014
rhumerus -40.6171 22.1492 -68.8534
rradius 36.9464
rwrist 8.4149
rhand 18.4296 -52.9382
rfingers 7.12502
rthumb 43.0694 -77.1596
lclavicle 8.11041e-014 5.56597e-014
lhumerus -2.04025 -34.8075 35.1521
lradius 75.5186
lwrist 6.07714
lhand -26.8289 -34.6167
lfingers 7.12502
lthumb -0.254867 -4.6371
rfemur -52.4123 -6.41452 35.6408
rtibia 16.7398
rfoot 16.3594 -15.7711
rtoes -31.5135
lfemur -58.8807 -6.02183 8.20092
ltibia 16.8651
lfoot 22.3903 20.278
ltoes -37.1627
402
root 14.0582 20.2771 8.17413 -143.208 -43.1027 191.835
lowerback -14.9739 -3.38002 -12.6791
upperback 0.0441067 -2.36281 -0.858985
thorax 8.99013 -1.74937 5.67419
lowerneck -1.17892 -7.2543 -5.52552
upperneck -7.67054 -9.96999 26.3951
head -0.246425 -6.03196 8.95559
rclavicle -3.81667e-014 -1.76521e-013
rhumerus -41.676 21.6731 -68.1598
rradius 36.3838
rwrist 9.43473
rhand 19.9791 -54.2111
rfingers 7.12502
rthumb 44.5156 -77.8989
lclavicle -3.81667e-014 -1.76521e-013
lhumerus -2.38524 -34.2301 37.4326
lradius 72.8331
lwrist 5.68363
lhand -26.8221 -34.7804
lfingers 7.12502
lthumb -0.248298 -4.80083
rfemur -52.6871 -5.83059 36.8083
rtibia 16.4852
rfoot 16.5165 -15.1651
rtoes -29.7641
lfemur -58.1348 -7.75377 12.8839
ltibia 14.3678
lfoot 20.812 24.6647
ltoes -31.9195
